<?xml version="1.0" encoding="UTF-8"?>
<svg id="Layer_1" data-name="Layer 1" xmlns="http://www.w3.org/2000/svg" viewBox="0 0 558.22 167.33">
  <defs>
    <style>
      .cls-1, .cls-2 {
        stroke-width: 0px;
      }

      .cls-2 {
        fill: #fff;
      }
    </style>
  </defs>
  <path class="cls-1" d="m83.74,0C130.17,0,167.66,37.5,167.46,84.12c-.2,47.17-39.09,84.01-85.23,83.2C37.6,166.54,0,130.3,0,83.63,0,37.02,37.81,0,83.74,0Zm-15.55,44.24c-3.51.26-10.37.63-17.19,1.34-6.64.68-13.18,2.03-19.56,4.01-4.15,1.29-6.42,5.62-5.16,9.71,1.24,4.05,5.47,6.33,9.61,5.19,1.23-.34,2.45-.71,3.69-1.01,12.35-3.05,24.9-3.91,37.57-3.49,8.4.28,16.73,1.19,24.96,2.86,11.06,2.24,21.66,5.73,31.47,11.43,2.73,1.58,5.56,1.32,8.14-.48,4.63-3.25,4.39-10.03-.46-12.99-5.13-3.13-10.58-5.58-16.22-7.64-17.27-6.3-35.19-8.72-56.85-8.92Zm65.09,50.88c0-2.99-1.12-4.95-3.26-6.26-4.81-2.94-9.86-5.42-15.12-7.45-16.67-6.45-33.96-9-51.78-8.13-9.09.45-18.01,1.87-26.73,4.53-3.62,1.1-5.55,4.57-4.56,8.04.99,3.45,4.59,5.44,8.15,4.39,10.71-3.17,21.64-4.35,32.78-4.05,11.09.3,21.92,2.09,32.47,5.53,6.36,2.08,12.43,4.79,18.15,8.26,2.15,1.31,4.41,1.37,6.6.12,2.14-1.22,3.23-3.13,3.28-4.97Zm-98.2,14.08c-.03,3.53,3.1,5.82,6.8,4.99,12.42-2.77,24.95-4.17,37.69-3.06,12.52,1.08,24.28,4.53,35.08,11.03,2.81,1.69,5.95,1,7.49-1.62,1.52-2.59.67-5.59-2.19-7.24-2.45-1.42-4.92-2.82-7.48-4.03-14.75-7.02-30.38-9.46-46.59-8.79-9.04.37-17.96,1.67-26.76,3.73-2.46.57-4.03,2.57-4.05,4.98Z"/>
  <path class="cls-1" d="m508.98,104.07c3.63-10.36,7.17-20.44,10.7-30.52.95-2.71,1.94-5.4,2.83-8.13.3-.92.78-1.26,1.73-1.25,4.08.04,8.15.01,12.23.02,1.59,0,1.9.47,1.31,2-5.9,15.24-11.77,30.49-17.71,45.71-2.26,5.79-4.58,11.56-7.08,17.25-1.39,3.17-3.54,5.88-6.43,7.9-3.89,2.72-8.31,3.09-12.85,2.81-3.88-.24-7.51-1.38-10.97-3.16-1.01-.52-1.18-1.13-.72-2.12,1.33-2.85,2.61-5.73,3.93-8.59.54-1.17.82-1.16,2.06-.72,1.86.67,3.75,1.36,5.69,1.71,3.24.57,5.5-.96,7.08-3.75.62-1.09.75-1.99.24-3.21-5.87-13.92-11.68-27.87-17.48-41.82-.3-.72-.62-1.05-1.46-1.04-3.32.05-6.64.02-9.95.03-.31,0-.62.04-1.07.07,0,.52,0,.99,0,1.45,0,13.94,0,27.87,0,41.81q0,1.95-2.01,1.95c-3.72,0-7.44,0-11.15,0-1.55,0-1.71-.16-1.71-1.71,0-14.02,0-28.03,0-42.05,0-.47,0-.93,0-1.53-1.93,0-3.72,0-5.5,0-1.53,0-1.61-.08-1.61-1.65,0-3.19,0-6.39,0-9.58,0-1.73.14-1.86,1.94-1.87,1.67,0,3.34,0,5.08,0,.1-2.08.02-4.09.34-6.04.39-2.38.84-4.83,1.77-7.03,2.3-5.43,6.82-8.05,12.48-8.83,4.73-.64,9.4-.17,14,1.1.93.26,1.29.69,1.28,1.67-.05,3.27-.01,6.55-.02,9.82,0,1.44-.35,1.61-1.75,1.32-2.33-.48-4.69-1.03-7.05-1.15-3.46-.17-5.49,1.63-6.04,5.02-.21,1.33-.17,2.7-.26,4.23h1.4c6.48,0,12.95,0,19.43,0q1.97,0,2.66,1.8c4.7,12.24,9.4,24.49,14.1,36.73.14.36.3.72.56,1.36Z"/>
  <path class="cls-1" d="m272.42,115.96c0,7.19,0,14.37,0,21.56,0,2.07-.06,2.12-2.17,2.12-3.68,0-7.36,0-11.03,0-1.43,0-1.67-.25-1.67-1.68,0-24.04,0-48.08,0-72.12,0-1.53.15-1.69,1.62-1.69,3.88,0,7.75,0,11.63,0,1.49,0,1.62.15,1.62,1.68,0,1.79,0,3.58,0,5.58.34-.27.55-.4.71-.58,7.4-8.39,18.12-9.62,27.26-5.96,9.52,3.81,14.84,11.19,16.77,21.03,1.57,7.99.9,15.83-2.83,23.21-6.13,12.13-20.71,17.79-32.99,12.86-2.82-1.13-5.28-2.81-7.43-4.94-.41-.41-.68-.97-1.02-1.45-.16.13-.32.26-.48.39Zm-.3-22.61c-.01,3.17.63,6.2,2.18,8.97,3.09,5.55,7.81,8.46,14.22,8.13,6.14-.32,10.38-3.58,12.74-9.19,1.94-4.62,2.04-9.4.6-14.17-3.31-10.99-16.26-14.61-24.51-6.81-3.72,3.51-5.17,8.04-5.22,13.07Z"/>
  <path class="cls-1" d="m223.5,123.59c-10.51-.14-20.77-3.95-29.65-11.46-1.55-1.31-1.54-1.43-.26-2.95,2.24-2.66,4.47-5.32,6.7-7.98,1.01-1.2,1.3-1.23,2.52-.19,4.7,3.96,9.82,7.14,15.95,8.35,3.99.79,8.03,1.09,11.97-.14,1.52-.47,3.01-1.3,4.28-2.28,3.22-2.46,3.68-8.95-.81-11.62-3.17-1.89-6.67-2.79-10.16-3.8-4.86-1.4-9.74-2.75-14.54-4.37-3.03-1.02-5.76-2.74-8.14-4.94-4.09-3.78-5.63-8.62-5.71-14-.16-11.14,6.59-19.87,17.82-22.4,13.24-2.98,25.33-.09,36.12,8.18.87.67.85,1.29.25,2.12-2.15,2.98-4.26,5.99-6.39,8.97-.78,1.1-1.13,1.14-2.24.34-4.32-3.11-8.92-5.63-14.21-6.62-4.06-.76-8.11-.94-11.95,1-3.4,1.72-4.83,4.71-4.11,8.44.39,1.99,1.63,3.34,3.3,4.34,3.22,1.94,6.82,2.9,10.41,3.82,4.95,1.27,9.93,2.42,14.59,4.57,4.23,1.95,8.08,4.39,10.59,8.48,6.08,9.91,2.2,24.14-8.18,30.11-4.68,2.69-10.3,4.01-18.17,4.01Z"/>
  <path class="cls-1" d="m384.04,93.25c-.03,16.9-13.21,30.28-30.84,30.56-17.32.27-31.24-13-31.37-29.79-.13-17.64,13.46-30.41,29.85-31.03,17.66-.67,32.21,12.44,32.35,30.27Zm-14.92.37c.04-3.07-.64-5.96-2.03-8.67-5.1-9.95-18.96-11.81-26.16-3.44-3.92,4.55-4.85,9.94-3.78,15.73,1.98,10.69,13.32,16.53,23,11.74,6.3-3.11,8.74-8.63,8.97-15.36Z"/>
  <path class="cls-1" d="m407,64.15c1.02,0,1.89,0,2.76,0,3.6,0,7.2,0,10.79,0,1.49,0,1.63.15,1.64,1.66,0,3.23,0,6.47,0,9.7,0,1.57-.08,1.65-1.61,1.65-4.04,0-8.08,0-12.11,0h-1.47v1.37c0,8.35,0,16.69,0,25.04,0,.56.05,1.12.12,1.67.43,3.14,2.11,4.62,5.29,4.72,2.69.08,5.24-.44,7.66-1.59,1.36-.64,1.94-.28,1.95,1.23.01,3.15.05,6.31-.04,9.46-.02.55-.45,1.34-.92,1.59-6.35,3.29-13,3.75-19.73,1.48-5.21-1.75-7.81-5.85-8.74-11.06-.32-1.8-.44-3.65-.45-5.48-.04-8.95-.02-17.89-.02-26.84v-1.6c-1.91,0-3.73,0-5.55,0-1.46,0-1.64-.18-1.64-1.67,0-3.19,0-6.39,0-9.58,0-1.57.2-1.76,1.82-1.76,1.75,0,3.5,0,5.37,0,0-.56,0-.99,0-1.42,0-4.15,0-8.31,0-12.46,0-1.39.22-1.61,1.58-1.62,3.92,0,7.84.02,11.75-.02,1.13-.01,1.57.38,1.56,1.54-.05,4.15-.02,8.31-.02,12.46,0,.44,0,.87,0,1.52Z"/>
  <path class="cls-1" d="m428.19,93.32c0-9.1,0-18.21,0-27.31,0-1.76.1-1.85,1.81-1.86,3.84,0,7.67.02,11.51-.02,1.13-.01,1.57.39,1.57,1.54-.02,18.45-.02,36.89,0,55.34,0,1.07-.37,1.49-1.47,1.48-3.96-.05-7.91-.02-11.87-.02-1.43,0-1.54-.11-1.54-1.6,0-9.18,0-18.37,0-27.55Z"/>
  <path class="cls-1" d="m435.65,57.04c-5.19,0-9.26-4.08-9.26-9.27,0-5.2,4.06-9.26,9.26-9.26,5.27,0,9.36,4.09,9.33,9.32-.03,5.17-4.13,9.22-9.33,9.21Z"/>
  <path class="cls-1" d="m558.22,73.15c0,5.13-4.07,9.21-9.18,9.21-5.03,0-9.13-4.09-9.14-9.13,0-5.06,4.16-9.23,9.21-9.22,5.08.02,9.11,4.06,9.1,9.14Zm-1.04-.01c0-4.61-3.5-8.12-8.1-8.11-4.54,0-8.09,3.58-8.13,8.15-.03,4.52,3.57,8.18,8.08,8.22,4.54.04,8.15-3.63,8.14-8.26Z"/>
  <path class="cls-2" d="m68.19,44.24c21.66.21,39.58,2.63,56.85,8.92,5.64,2.06,11.09,4.51,16.22,7.64,4.85,2.96,5.1,9.74.46,12.99-2.57,1.81-5.41,2.06-8.14.48-9.82-5.69-20.42-9.18-31.47-11.43-8.24-1.67-16.57-2.58-24.96-2.86-12.67-.42-25.22.44-37.57,3.49-1.24.31-2.46.68-3.69,1.01-4.14,1.14-8.36-1.14-9.61-5.19-1.26-4.09,1.01-8.43,5.16-9.71,6.39-1.98,12.92-3.33,19.56-4.01,6.83-.7,13.69-1.07,17.19-1.34Z"/>
  <path class="cls-2" d="m133.28,95.12c-.05,1.85-1.14,3.75-3.28,4.97-2.19,1.25-4.45,1.19-6.6-.12-5.73-3.47-11.8-6.18-18.15-8.26-10.55-3.44-21.38-5.23-32.47-5.53-11.14-.3-22.08.88-32.78,4.05-3.56,1.05-7.16-.94-8.15-4.39-1-3.47.94-6.94,4.56-8.04,8.71-2.65,17.64-4.08,26.73-4.53,17.82-.88,35.11,1.68,51.78,8.13,5.26,2.04,10.31,4.51,15.12,7.45,2.14,1.31,3.26,3.27,3.26,6.26Z"/>
  <path class="cls-2" d="m35.08,109.19c.02-2.41,1.59-4.41,4.05-4.98,8.81-2.05,17.72-3.36,26.76-3.73,16.21-.67,31.84,1.77,46.59,8.79,2.55,1.21,5.02,2.62,7.48,4.03,2.85,1.65,3.71,4.65,2.19,7.24-1.55,2.62-4.68,3.31-7.49,1.62-10.8-6.51-22.56-9.95-35.08-11.03-12.74-1.1-25.27.29-37.69,3.06-3.7.83-6.83-1.46-6.8-4.99Z"/>
  <path class="cls-1" d="m551.27,74.2c.8,1.13,1.57,2.21,2.39,3.38-1.33.3-2.36.3-2.96-.98-.15-.32-.45-.57-.6-.89-.54-1.16-1.44-1.5-2.77-1.14v3.07h-1.89v-9.37c1.84,0,3.67-.11,5.48.04,1.23.1,2.12.91,2.38,2.2.3,1.49-.19,2.57-1.46,3.35-.16.1-.32.2-.57.36Zm-3.94-1.4c1.05-.05,2.03-.03,2.99-.17.76-.11,1.27-.71,1.04-1.45-.16-.5-.7-1.12-1.17-1.22-.9-.19-1.87-.06-2.87-.06v2.89Z"/>
</svg>